<svg width="683" height="683" viewBox="0 0 683 683" fill="none" xmlns="http://www.w3.org/2000/svg">
<rect width="683" height="683" fill="black"/>
<path d="M170.75 613.863L272.038 52.0562C272.583 49.8755 273.944 48.7852 276.122 48.7852H394.564C396.742 48.7852 398.104 49.8755 398.648 52.0562L495.852 613.863C496.397 616.589 495.307 617.952 492.585 617.952H401.915C399.737 617.952 398.376 616.589 397.831 613.863L388.846 554.166H277.756L268.771 613.863C268.226 616.589 266.865 617.952 264.687 617.952H174.017C171.839 617.952 170.75 616.589 170.75 613.863ZM294.093 466.665H372.509L339.019 236.872L334.118 206.614L330.85 236.872L294.093 466.665Z" fill="white"/>
</svg>
